<svg id="Group_10" data-name="Group 10" xmlns="http://www.w3.org/2000/svg" xmlns:xlink="http://www.w3.org/1999/xlink" width="203.502" height="226.107" viewBox="0 0 203.502 226.107">
  <defs>
    <clipPath id="clip-path">
      <rect id="Rectangle_41" data-name="Rectangle 41" width="203.502" height="226.107" fill="none"/>
    </clipPath>
  </defs>
  <path id="Path_54" data-name="Path 54" d="M65.061,36.436v15l67.314,38.63V98.02l-30.624,16.986L71.127,98.02V87.461H65.061v14.108l36.69,20.35,36.691-20.35V86.557L71.127,47.926V39.985L101.751,23l30.624,16.986V50.544h6.067V36.436L101.751,16.087ZM101.745,0,77.51,13.992l0,.006L53.266,28v81.421l24.247,14,0,.006,24.235,13.993,48.49-27.989V65.074H132.488v6.067h11.681v34.795l-21.208,12.246,0,0-21.2,12.243L59.333,105.943V31.467L101.758,6.98l21.2,12.243,0,.006,21.208,12.245V50.417h6.066V27.989Z" fill="#1a1818"/>
  <g id="Group_14" data-name="Group 14">
    <g id="Group_13" data-name="Group 13" clip-path="url(#clip-path)">
      <path id="Path_55" data-name="Path 55" d="M191.632,152.3v33.75c0,.3.2.453.606.453h5.034c.384,0,.573-.154.573-.453V152.3H203.5v33.946a5.748,5.748,0,0,1-1.6,4.333,5.6,5.6,0,0,1-4.162,1.53h-6.008a5.563,5.563,0,0,1-4.154-1.53,5.752,5.752,0,0,1-1.607-4.333V152.3Zm-23.005,0a5.683,5.683,0,0,1,4.206,1.547,5.792,5.792,0,0,1,1.555,4.307v6.538a10.567,10.567,0,0,1-1.1,5.282,4.331,4.331,0,0,1-3.582,2.231,4.289,4.289,0,0,1,3.582,2.23,10.565,10.565,0,0,1,1.1,5.282V192.11H168.73V179.137a4.69,4.69,0,0,0-.829-3.231q-.82-.9-3.18-.9h-2.2v17.1h-5.658V152.3Zm-6.11,17.1h2.2c1.573,0,2.633-.3,3.18-.906a4.658,4.658,0,0,0,.829-3.23V158.36c0-.282-.188-.427-.573-.427h-5.64ZM146.726,192.11H131.573V152.3h15.153v5.632H137.24V169.4h9.486v5.607H137.24V186.5h9.486Zm-34.951-6.256L113.2,172.1l2.8-19.8h5.436L115.86,192.11h-8.188L102.057,152.3h5.461l2.8,19.8ZM87.147,152.3H92.83V192.11H87.147ZM70,152.3a5.679,5.679,0,0,1,4.205,1.547,5.788,5.788,0,0,1,1.556,4.307v6.538a10.578,10.578,0,0,1-1.1,5.282,4.331,4.331,0,0,1-3.582,2.231,4.289,4.289,0,0,1,3.582,2.23,10.575,10.575,0,0,1,1.1,5.282V192.11H70.1V179.137a4.69,4.69,0,0,0-.829-3.231q-.821-.9-3.179-.9H63.887v17.1H58.229V152.3Zm-6.11,17.1h2.205c1.573,0,2.632-.3,3.179-.906a4.658,4.658,0,0,0,.829-3.23V158.36c0-.282-.188-.427-.572-.427H63.887Zm-29.089,0h2.179c1.573,0,2.633-.3,3.18-.906a4.658,4.658,0,0,0,.829-3.23V152.3h5.657v12.392a10.567,10.567,0,0,1-1.1,5.282,3.969,3.969,0,0,1-3.051,2.231,3.926,3.926,0,0,1,3.051,2.23,10.565,10.565,0,0,1,1.1,5.282V192.11H40.986V179.137a4.69,4.69,0,0,0-.829-3.231q-.821-.9-3.18-.9H34.8v17.1H29.115V152.3H34.8ZM.026,158.155a5.834,5.834,0,0,1,1.582-4.324,5.611,5.611,0,0,1,4.178-1.53H11.8a5.582,5.582,0,0,1,4.154,1.53,5.806,5.806,0,0,1,1.581,4.324V166.2H11.872V158.36c0-.282-.2-.427-.573-.427H6.266c-.385,0-.582.145-.582.427v6.333a4.19,4.19,0,0,0,1.632,3.4,11.836,11.836,0,0,0,1.83,1.179c.265.137.615.316,1.051.555l1.1.548a13.337,13.337,0,0,1,4.23,3.128,9.4,9.4,0,0,1,2,6.213v6.529a5.773,5.773,0,0,1-1.581,4.333,5.618,5.618,0,0,1-4.154,1.53H5.761a5.649,5.649,0,0,1-4.179-1.53A5.8,5.8,0,0,1,0,186.247v-8.033H5.659v7.837c0,.3.2.453.581.453H11.3c.376,0,.573-.154.573-.453v-6.333a3.856,3.856,0,0,0-1.607-3.128,12.046,12.046,0,0,0-1.82-1.18c-.257-.137-.616-.316-1.077-.555l-1.1-.6a13.988,13.988,0,0,1-4.257-3.23,9.8,9.8,0,0,1-1.983-6.333Z" fill="#1a1818"/>
      <path id="Path_56" data-name="Path 56" d="M161.891,226.107l2.886-20.5h4.208l2.886,20.5h-2.812l-.708-5.118h-2.939l-.709,5.118Zm4.99-18.126-.748,6.9-.308,3.238h2.112l-.321-3.238Zm-12.787.748c0-.145-.1-.22-.295-.22h-2.89l.013,5.906h1.135a2.138,2.138,0,0,0,1.61-.467,2.4,2.4,0,0,0,.427-1.663Zm-3.172,14.491h1.109a2.235,2.235,0,0,0,1.65-.466,2.571,2.571,0,0,0,.44-1.677v-1.65a2.418,2.418,0,0,0-.427-1.664,2.208,2.208,0,0,0-1.637-.462h-1.135Zm-2.914-17.611h6.033a2.9,2.9,0,0,1,2.157.788,3,3,0,0,1,.81,2.227v3.366a5.443,5.443,0,0,1-.568,2.719,2.159,2.159,0,0,1-1.817,1.149,2.21,2.21,0,0,1,1.844,1.149,5.441,5.441,0,0,1,.567,2.719v1.351a5.482,5.482,0,0,1-1.136,3.7,5.023,5.023,0,0,1-3.867,1.329h-4.023Zm-8.8,0h2.926v20.5h-2.926Zm-11.9,20.5a2.909,2.909,0,0,1-2.152-.788,2.989,2.989,0,0,1-.814-2.231V208.624a3.005,3.005,0,0,1,.814-2.227,2.893,2.893,0,0,1,2.152-.788h3.067a2.9,2.9,0,0,1,2.156.788,3,3,0,0,1,.81,2.227v4.141h-2.9v-4.036c0-.145-.1-.22-.295-.22h-2.592c-.2,0-.3.075-.3.22v14.258c0,.154.1.233.3.233h2.592c.2,0,.295-.079.295-.233v-4.035h2.9v4.136a2.987,2.987,0,0,1-.81,2.231,2.917,2.917,0,0,1-2.156.788Zm-8.184,0h-7.8v-20.5h7.8v2.9h-4.884v5.906h4.884V217.3h-4.884v5.919h4.884Zm-16.575-20.5h2.926v20.5h-2.926Zm-12.087,0,3,10.143.607,2.566-.194-3.349v-9.36h2.812v20.5H93.981l-2.988-10.148-.607-2.82.194,3.608v9.36H87.768v-20.5ZM75.69,223.22h1.135a2.184,2.184,0,0,0,1.637-.466,2.428,2.428,0,0,0,.427-1.677V208.729c0-.145-.1-.22-.308-.22H75.69Zm-2.913,2.887v-20.5h6.06a2.889,2.889,0,0,1,2.142.788,2.975,2.975,0,0,1,.823,2.227v12.453a5.349,5.349,0,0,1-1.122,3.7,4.98,4.98,0,0,1-3.855,1.329Zm-4.3,0H60.646v-20.5h2.917V223.22h4.912Zm-22.935,0,2.887-20.5h4.207l2.887,20.5H52.709L52,220.989H49.061l-.709,5.118Zm4.99-18.126-.748,6.9-.308,3.238h2.112l-.321-3.238Zm-9.873,18.126H36.609a4.991,4.991,0,0,1-3.855-1.329,5.344,5.344,0,0,1-1.122-3.7V208.624a2.977,2.977,0,0,1,.827-2.227,2.873,2.873,0,0,1,2.138-.788h3.094a2.923,2.923,0,0,1,2.165.8,2.979,2.979,0,0,1,.8,2.218v4.141H37.744v-4.036c0-.145-.1-.22-.295-.22H34.857c-.2,0-.3.075-.3.22v12.348a2.562,2.562,0,0,0,.427,1.7,2.232,2.232,0,0,0,1.624.44h1.135V217.3h-1.7v-2.886h4.616Z" fill="#1a1818"/>
      <rect id="Rectangle_39" data-name="Rectangle 39" width="13.119" height="3.88" transform="translate(83.529 145.066)" fill="#1a1818"/>
      <rect id="Rectangle_40" data-name="Rectangle 40" width="7.101" height="2.1" transform="translate(137.114 201.94)" fill="#1a1818"/>
    </g>
  </g>
</svg>
