<svg id="sg_logo-01" xmlns="http://www.w3.org/2000/svg" width="115.703" height="246.502" viewBox="0 0 115.703 246.502">
  <path id="Path_38" data-name="Path 38" d="M111.046,54.828v-20.6L87.981,20.908h0L64.919,7.59,18.788,34.218v80.993l46.136,26.627,23.061-13.314h0L111.051,115.2V77.364h-12.7v-6.6h19.3V119L64.915,149.433,38.557,134.214h0L12.19,118.987V30.446L38.557,15.223h0L64.907,0,117.64,30.437v24.39h-6.6Zm-12.826.139V43.482l-33.3-18.474L31.61,43.482V52.12l73.2,42.01v16.325l-39.9,22.132-39.9-22.132V95.114h6.6V106.6l33.305,18.474,33.3-18.474V97.944l-73.2-42.01V39.626l39.9-22.132,39.9,22.132V54.967h-6.6Z" transform="translate(-7.064)" fill="#27343a"/>
  <g id="Group_12" data-name="Group 12" transform="translate(0 166.111)">
    <g id="Group_10" data-name="Group 10">
      <path id="Path_39" data-name="Path 39" d="M19.18,438.586H12.986V419.873H6.194v18.713H0V395.02H6.194v18.713h6.791V395.02H19.18Z" transform="translate(0 -395.016)" fill="#27343a"/>
      <path id="Path_40" data-name="Path 40" d="M83.111,395.01a6.186,6.186,0,0,1,4.575,1.674,6.4,6.4,0,0,1,1.728,4.739v30.744a6.341,6.341,0,0,1-1.728,4.739,6.186,6.186,0,0,1-4.575,1.674H76.534a5.875,5.875,0,0,1-6.3-6.413V401.423a6.341,6.341,0,0,1,1.754-4.739,6.152,6.152,0,0,1,4.55-1.674Zm-6.026,6.165q-.631,0-.631.467v30.3q0,.492.631.492h5.509q.631,0,.631-.492v-30.3q0-.467-.631-.467Z" transform="translate(-40.697 -395.01)" fill="#27343a"/>
      <path id="Path_41" data-name="Path 41" d="M153.451,433.3l1.892-15.261,4.029-23.015h7.288l2.082,43.566h-6.11l-.795-29.895-4.823,29.895h-7.124l-4.823-29.895-.795,29.895H138.19l2.052-43.566h7.288l4.029,23.015Z" transform="translate(-80.078 -395.016)" fill="#27343a"/>
      <path id="Path_42" data-name="Path 42" d="M252.3,438.586H235.72V395.02H252.3v6.165H241.914v12.548H252.3v6.135H241.914v12.578H252.3v6.135Z" transform="translate(-136.594 -395.016)" fill="#27343a"/>
    </g>
    <g id="Group_11" data-name="Group 11" transform="translate(23.818 58.095)">
      <path id="Path_43" data-name="Path 43" d="M56.644,555.452V533.16h6.59a3.148,3.148,0,0,1,2.325.854,3.25,3.25,0,0,1,.9,2.426v13.541a5.838,5.838,0,0,1-1.22,4.024,5.421,5.421,0,0,1-4.193,1.442h-4.4Zm3.167-3.141h1.232a2.408,2.408,0,0,0,1.783-.5,2.667,2.667,0,0,0,.463-1.821V536.554c0-.16-.114-.24-.336-.24H59.811v16Z" transform="translate(-56.64 -533.16)" fill="#27343a"/>
      <path id="Path_44" data-name="Path 44" d="M101,555.452H92.52V533.16H101v3.154H95.691v6.421H101v3.141H95.691v6.434H101v3.141Z" transform="translate(-77.432 -533.16)" fill="#27343a"/>
      <path id="Path_45" data-name="Path 45" d="M126.575,555.452a3.175,3.175,0,0,1-2.342-.854,3.251,3.251,0,0,1-.883-2.426V536.44a3.277,3.277,0,0,1,.883-2.426,3.175,3.175,0,0,1,2.342-.854h3.335a3.175,3.175,0,0,1,2.342.854,3.277,3.277,0,0,1,.883,2.426v4.5h-3.154v-4.39c0-.16-.105-.24-.324-.24H126.84c-.214,0-.324.08-.324.24v15.5c0,.168.105.252.324.252h2.817c.214,0,.324-.084.324-.252v-4.39h3.154v4.5a3.251,3.251,0,0,1-.883,2.426,3.152,3.152,0,0,1-2.342.854h-3.335Z" transform="translate(-95.297 -533.16)" fill="#27343a"/>
      <path id="Path_46" data-name="Path 46" d="M165.81,533.17a3.175,3.175,0,0,1,2.342.854,3.277,3.277,0,0,1,.883,2.426v15.732a3.251,3.251,0,0,1-.883,2.426,3.152,3.152,0,0,1-2.342.854h-3.364a3.009,3.009,0,0,1-3.225-3.28V536.45a3.25,3.25,0,0,1,.9-2.426,3.155,3.155,0,0,1,2.325-.854h3.364Zm-3.082,3.154c-.214,0-.324.08-.324.24v15.5c0,.168.105.252.324.252h2.817c.214,0,.324-.084.324-.252v-15.5c0-.16-.109-.24-.324-.24Z" transform="translate(-116.083 -533.166)" fill="#27343a"/>
      <path id="Path_47" data-name="Path 47" d="M201.745,533.164a3.178,3.178,0,0,1,2.355.87,3.257,3.257,0,0,1,.87,2.41V540.1a5.915,5.915,0,0,1-.618,2.956,1.392,1.392,0,1,0,0,2.5,5.915,5.915,0,0,1,.618,2.956v6.939H201.8v-7.262a2.643,2.643,0,0,0-.463-1.808,2.4,2.4,0,0,0-1.783-.5h-1.232v9.575H195.16V533.16h6.59Zm-3.419,9.575h1.232a2.408,2.408,0,0,0,1.783-.5,2.643,2.643,0,0,0,.463-1.808v-3.869c0-.16-.109-.24-.324-.24h-3.154Z" transform="translate(-136.909 -533.16)" fill="#27343a"/>
    </g>
  </g>
</svg>
