<svg xmlns="http://www.w3.org/2000/svg" width="282.57" height="42.834" viewBox="0 0 282.57 42.834"><path d="M34.6,15.716V9.811L26.527,5.993h0L18.455,2.176,2.309,9.808V33.024l16.148,7.633,8.072-3.816h0L34.6,33.022V22.176H30.155V20.284h6.756V34.109L18.454,42.834,9.228,38.471h0L0,34.107V8.727L9.228,4.364h0L18.452,0,36.909,8.725v6.991Zm-4.489.04V12.464L18.454,7.17,6.8,12.464V14.94L32.42,26.982v4.679L18.455,38,4.491,31.661v-4.4H6.8v3.292l11.657,5.3,11.656-5.3V28.075L4.489,16.033V11.358L18.454,5.014l13.965,6.344v4.4H30.109Z" fill="#2f434b"/><g transform="translate(63.314 3.761)"><path d="M454.3,98.731h-5.019V83.564h-5.508V98.731H438.75V63.42h5.019V78.587h5.508V63.42H454.3V98.729Z" transform="translate(-438.75 -63.42)" fill="#2f434b"/><path d="M611.827,63.42a5.015,5.015,0,0,1,3.709,1.354,5.19,5.19,0,0,1,1.4,3.843V93.534a5.143,5.143,0,0,1-1.4,3.842,5.009,5.009,0,0,1-3.709,1.354H606.5a4.762,4.762,0,0,1-5.107-5.2V68.619a5.151,5.151,0,0,1,1.42-3.843,4.985,4.985,0,0,1,3.687-1.354h5.33Zm-4.885,5c-.341,0-.511.127-.511.378V93.356c0,.266.169.4.511.4h4.464c.34,0,.511-.134.511-.4V68.8c0-.252-.171-.378-.511-.378Z" transform="translate(-577.452 -63.42)" fill="#2f434b"/><path d="M771.118,94.453l1.532-12.369,3.264-18.654h5.908l1.687,35.31h-4.951l-.645-24.229-3.908,24.229h-5.774L764.324,74.51l-.645,24.229H758.75l1.665-35.31h5.908l3.265,18.654,1.532,12.369Z" transform="translate(-711.651 -63.429)" fill="#2f434b"/><path d="M998.035,98.731H984.6V63.42h13.435v5h-8.416V78.589h8.416v4.975h-8.416V93.758h8.416v4.975Z" transform="translate(-904.26 -63.42)" fill="#2f434b"/></g><g transform="translate(174.762 3.761)"><path d="M1212.95,98.731V63.42h10.437a4.987,4.987,0,0,1,3.687,1.354,5.144,5.144,0,0,1,1.422,3.843V90.071q0,4.241-1.933,6.373-2.088,2.287-6.639,2.287h-6.972Zm5.019-4.975h1.953a3.8,3.8,0,0,0,2.822-.8,4.209,4.209,0,0,0,.733-2.886V68.8c0-.252-.177-.378-.533-.378h-4.975Z" transform="translate(-1212.95 -63.42)" fill="#2f434b"/><path d="M1388.725,98.731H1375.29V63.42h13.435v5h-8.416V78.589h8.416v4.975h-8.416V93.758h8.416v4.975Z" transform="translate(-1351.396 -63.42)" fill="#2f434b"/><path d="M1519.947,98.739a5.016,5.016,0,0,1-3.709-1.354,5.147,5.147,0,0,1-1.4-3.842V68.627a5.2,5.2,0,0,1,1.4-3.843,5.016,5.016,0,0,1,3.709-1.354h5.286a5.015,5.015,0,0,1,3.709,1.354,5.191,5.191,0,0,1,1.4,3.843v7.128h-5V68.8c0-.252-.169-.378-.511-.378h-4.464c-.341,0-.51.127-.51.378V93.364c0,.266.169.4.51.4h4.464c.341,0,.511-.134.511-.4V86.413h5v7.13a5.144,5.144,0,0,1-1.4,3.841,5.009,5.009,0,0,1-3.709,1.354h-5.286Z" transform="translate(-1470.407 -63.429)" fill="#2f434b"/><path d="M1687.6,63.42a5.015,5.015,0,0,1,3.709,1.354,5.19,5.19,0,0,1,1.4,3.843V93.534a5.143,5.143,0,0,1-1.4,3.842,5.009,5.009,0,0,1-3.709,1.354h-5.329a4.761,4.761,0,0,1-5.107-5.2V68.619a5.151,5.151,0,0,1,1.42-3.843,4.985,4.985,0,0,1,3.687-1.354h5.329Zm-4.885,5c-.342,0-.51.127-.51.378V93.356c0,.266.169.4.51.4h4.464c.34,0,.511-.134.511-.4V68.8c0-.252-.171-.378-.511-.378Z" transform="translate(-1608.836 -63.42)" fill="#2f434b"/><path d="M1850.236,63.42a5.043,5.043,0,0,1,3.731,1.378,5.165,5.165,0,0,1,1.377,3.821v5.8a9.381,9.381,0,0,1-.978,4.685,3.833,3.833,0,0,1-3.176,1.977,3.833,3.833,0,0,1,3.176,1.975,9.4,9.4,0,0,1,.978,4.685V98.729h-5.019v-11.5a4.167,4.167,0,0,0-.733-2.864,3.8,3.8,0,0,0-2.821-.8h-1.953V98.729H1839.8V63.42Zm-5.418,15.167h1.953a3.8,3.8,0,0,0,2.821-.8,4.164,4.164,0,0,0,.733-2.864V68.8c0-.252-.171-.378-.511-.378h-5V78.589Z" transform="translate(-1747.537 -63.42)" fill="#2f434b"/></g></svg>